<svg width="40" height="40" viewBox="0 0 40 40" fill="none" xmlns="http://www.w3.org/2000/svg">
<path d="M5 16.4229C5 14.7162 6.38352 13.3327 8.09017 13.3327V13.3327C9.26064 13.3327 10.3307 12.6714 10.8541 11.6245L12.2222 8.88824C12.4055 8.52171 12.4971 8.33845 12.601 8.17905C13.1432 7.34738 14.0278 6.80064 15.0141 6.68767C15.2032 6.66602 15.4081 6.66602 15.8179 6.66602H24.1821C24.5919 6.66602 24.7968 6.66602 24.9859 6.68767C25.9722 6.80064 26.8568 7.34738 27.399 8.17905C27.5029 8.33845 27.5945 8.52171 27.7778 8.88824L29.1459 11.6245C29.6693 12.6714 30.7394 13.3327 31.9098 13.3327V13.3327C33.6165 13.3327 35 14.7162 35 16.4229V24.7613C35 28.1025 35 29.7732 34.2336 30.9928C33.834 31.6289 33.2962 32.1667 32.6602 32.5663C31.4405 33.3327 29.7698 33.3327 26.4286 33.3327H13.5714C10.2302 33.3327 8.55952 33.3327 7.33984 32.5663C6.70382 32.1667 6.16602 31.6289 5.76638 30.9928C5 29.7732 5 28.1025 5 24.7613V16.4229Z" stroke="#909090" stroke-width="3.33333"/>
<circle cx="20.0002" cy="21.6667" r="5" stroke="#909090" stroke-width="3.33333"/>
</svg>
