<svg width="40" height="40" viewBox="0 0 40 40" fill="none" xmlns="http://www.w3.org/2000/svg">
<path d="M5 11.6667C5 7.98477 7.98477 5 11.6667 5H28.3333C32.0152 5 35 7.98477 35 11.6667V28.3333C35 32.0152 32.0152 35 28.3333 35H11.6667C7.98477 35 5 32.0152 5 28.3333V11.6667Z" stroke="#909090" stroke-width="3.33333"/>
<path d="M5 25L9.67583 20.3242C11.1464 18.8536 13.5897 19.0739 14.7735 20.7838L17.9441 25.3633C19.0519 26.9635 21.2892 27.2782 22.7954 26.0458L26.8319 22.7434C28.1573 21.6589 30.0888 21.7553 31.2997 22.9663L35 26.6667" stroke="#909090" stroke-width="3.33333"/>
<circle cx="26.6663" cy="13.3333" r="3.33333" fill="#909090"/>
</svg>
