<svg width="305" height="400" viewBox="0 0 305 400" fill="none" xmlns="http://www.w3.org/2000/svg">
<rect width="305" height="400" fill="#FAFAFA"/>
<path d="M113.295 219.449L110.516 216.572L110.488 216.599L110.461 216.626L113.295 219.449ZM157.572 214.928L160.955 217.063L160.955 217.063L157.572 214.928ZM161.511 208.689L158.129 206.554L158.129 206.554L161.511 208.689ZM194.694 205.003L191.859 207.826L191.859 207.826L194.694 205.003ZM134.244 218.651L136.798 215.573L136.798 215.573L134.244 218.651ZM142.419 224.331L143.566 220.499L143.566 220.499L142.419 224.331ZM151.553 222.873L149.271 219.587L149.271 219.587L151.553 222.873ZM119.579 214.249L121.223 217.896L121.223 217.896L119.579 214.249ZM127.586 213.945L128.949 210.184L128.949 210.184L127.586 213.945ZM113.792 146H192.208V138H113.792V146ZM221 174.938V225.062H229V174.938H221ZM192.208 254H113.792V262H192.208V254ZM85 225.062V174.938H77V225.062H85ZM113.792 254C105.949 254 100.471 253.991 96.3365 253.433C92.3184 252.89 90.1718 251.896 88.637 250.354L82.9676 255.998C86.2351 259.281 90.3542 260.698 95.2658 261.361C100.061 262.009 106.176 262 113.792 262V254ZM77 225.062C77 232.713 76.9916 238.852 77.6356 243.664C78.2949 248.589 79.7025 252.719 82.9676 255.998L88.637 250.354C87.0998 248.81 86.1063 246.647 85.5649 242.602C85.0084 238.444 85 232.938 85 225.062H77ZM221 225.062C221 232.938 220.992 238.444 220.435 242.602C219.894 246.647 218.9 248.81 217.363 250.354L223.032 255.998C226.297 252.719 227.705 248.589 228.364 243.664C229.008 238.852 229 232.713 229 225.062H221ZM192.208 262C199.824 262 205.939 262.009 210.734 261.361C215.646 260.698 219.765 259.281 223.032 255.998L217.363 250.354C215.828 251.896 213.682 252.89 209.664 253.433C205.529 253.991 200.051 254 192.208 254V262ZM192.208 146C200.051 146 205.529 146.009 209.664 146.567C213.682 147.11 215.828 148.104 217.363 149.646L223.032 144.002C219.765 140.719 215.646 139.302 210.734 138.639C205.939 137.991 199.824 138 192.208 138V146ZM229 174.938C229 167.287 229.008 161.148 228.364 156.336C227.705 151.411 226.297 147.281 223.032 144.002L217.363 149.646C218.9 151.19 219.894 153.353 220.435 157.398C220.992 161.556 221 167.062 221 174.938H229ZM113.792 138C106.176 138 100.061 137.991 95.2658 138.639C90.3542 139.302 86.2351 140.719 82.9676 144.002L88.637 149.646C90.1718 148.104 92.3184 147.11 96.3365 146.567C100.471 146.009 105.949 146 113.792 146V138ZM85 174.938C85 167.062 85.0084 161.556 85.5649 157.398C86.1063 153.353 87.0998 151.19 88.637 149.646L82.9676 144.002C79.7025 147.281 78.2949 151.411 77.6356 156.336C76.9916 161.148 77 167.287 77 174.938H85ZM86.1403 252.394L116.13 222.271L110.461 216.626L80.4709 246.75L86.1403 252.394ZM160.955 217.063L164.893 210.824L158.129 206.554L154.19 212.792L160.955 217.063ZM191.859 207.826L222.165 238.267L227.835 232.622L197.529 202.181L191.859 207.826ZM164.893 210.824C168.26 205.491 170.561 201.865 172.619 199.451C174.609 197.117 175.861 196.537 176.958 196.415L176.075 188.464C172.067 188.909 169.117 191.226 166.531 194.261C164.012 197.216 161.362 201.432 158.129 206.554L164.893 210.824ZM197.529 202.181C193.26 197.893 189.756 194.36 186.655 192.029C183.469 189.633 180.084 188.019 176.075 188.464L176.958 196.415C178.054 196.293 179.4 196.583 181.848 198.423C184.38 200.327 187.414 203.36 191.859 207.826L197.529 202.181ZM131.69 221.73C133.679 223.38 135.322 224.747 136.734 225.765C138.167 226.799 139.615 227.667 141.272 228.163L143.566 220.499C143.142 220.372 142.533 220.085 141.415 219.278C140.274 218.455 138.872 217.294 136.798 215.573L131.69 221.73ZM154.19 212.792C152.75 215.073 151.774 216.615 150.944 217.753C150.129 218.869 149.637 219.333 149.271 219.587L153.834 226.159C155.255 225.172 156.362 223.898 157.405 222.469C158.432 221.062 159.573 219.252 160.955 217.063L154.19 212.792ZM141.272 228.163C145.547 229.442 150.168 228.703 153.834 226.159L149.271 219.587C147.603 220.745 145.505 221.079 143.566 220.499L141.272 228.163ZM116.075 222.325C119.373 219.138 120.32 218.303 121.223 217.896L117.935 210.603C115.447 211.725 113.336 213.847 110.516 216.572L116.075 222.325ZM136.798 215.573C133.781 213.07 131.516 211.114 128.949 210.184L126.224 217.706C127.154 218.043 128.162 218.802 131.69 221.73L136.798 215.573ZM121.223 217.896C122.803 217.184 124.596 217.116 126.224 217.706L128.949 210.184C125.362 208.885 121.413 209.035 117.935 210.603L121.223 217.896ZM124.05 178.519C124.05 182.258 121.036 185.259 117.356 185.259V193.259C125.488 193.259 132.05 186.643 132.05 178.519H124.05ZM117.356 185.259C113.677 185.259 110.663 182.258 110.663 178.519H102.663C102.663 186.643 109.225 193.259 117.356 193.259V185.259ZM110.663 178.519C110.663 174.779 113.677 171.778 117.356 171.778V163.778C109.225 163.778 102.663 170.394 102.663 178.519H110.663ZM117.356 171.778C121.036 171.778 124.05 174.779 124.05 178.519H132.05C132.05 170.394 125.488 163.778 117.356 163.778V171.778Z" fill="black" fill-opacity="0.12"/>
<path d="M147.204 350.299H158.824V349.894H157.229C155.043 349.894 154.768 349.713 154.768 347.55V310.562C154.768 308.398 155.042 308.219 157.229 308.219H158.824V307.722H147.204V308.128H148.799C150.986 308.128 151.214 308.31 151.214 310.472V347.55C151.214 349.711 150.985 349.894 148.799 349.894H147.204V350.299Z" fill="#E0E0E0"/>
<path d="M160.959 335.929V321.462H160.549V323.039C160.549 326.896 158.665 327.674 156.448 327.797V328.65C158.666 328.781 160.549 329.593 160.549 333.45V335.929H160.959Z" fill="#E0E0E0"/>
<path d="M149.535 327.817H145.812V316.009C145.812 315.017 145.356 314.206 144.809 313.665V313.62H149.535V312.808H138.248V313.214H139.842C142.029 313.214 142.258 313.44 142.258 315.603V342.419C142.258 344.583 142.029 344.808 139.842 344.808H138.248V345.214H149.535V344.402H144.809V344.357C145.356 343.816 145.812 343.005 145.812 342.014V328.628H149.535V327.817Z" fill="#E0E0E0"/>
<path d="M156.448 313.62H157.345C161.719 313.62 164.082 315.288 164.362 320.155L164.544 323.31H165.364L164.544 311.096L164.134 311.126L164.271 313.214H164.226C163.907 312.899 163.268 312.808 162.539 312.808H156.448V313.62Z" fill="#E0E0E0"/>
<path d="M156.448 345.214H165C165.729 345.214 166.367 345.124 166.686 344.808H166.732L166.595 346.896L167.005 346.926L167.78 334.713H167.051L166.777 338.318C166.449 342.644 164.362 344.402 159.988 344.402H156.448V345.214Z" fill="#E0E0E0"/>
<path d="M188.56 339.497L184.936 338.52L185.029 338.184L185.75 338.378C186.229 338.507 186.524 338.456 186.714 338.308C186.907 338.157 187.008 337.895 187.085 337.614L187.171 337.302L184.051 336.461C183.922 336.427 183.812 336.368 183.719 336.296C183.686 336.27 183.656 336.243 183.627 336.214L183.1 338.128C182.965 338.616 182.964 338.999 183.114 339.298C183.264 339.594 183.57 339.816 184.051 339.984L185.016 340.323L184.902 340.734L181.749 339.67L181.867 339.341L182.285 339.483L182.286 339.465C182.29 339.383 182.309 339.292 182.335 339.197L183.715 334.188L184.055 334.28L183.918 334.778C183.856 335.003 183.831 335.127 183.866 335.188C183.902 335.25 184.022 335.292 184.25 335.353L190.743 337.104C190.971 337.165 191.097 337.19 191.159 337.154C191.221 337.119 191.263 337 191.326 336.774L191.463 336.277L191.802 336.369L190.583 340.795C190.557 340.889 190.526 340.978 190.488 341.05L190.48 341.065L190.912 341.153L190.845 341.495L187.579 340.841L187.699 340.406L188.59 340.593C189.154 340.712 189.562 340.669 189.857 340.477C190.154 340.284 190.349 339.935 190.484 339.446L190.839 338.158C190.8 338.169 190.759 338.177 190.718 338.182C190.601 338.198 190.475 338.193 190.347 338.158L187.609 337.42L187.523 337.732C187.446 338.013 187.396 338.288 187.482 338.515C187.567 338.738 187.792 338.929 188.271 339.058L188.774 339.193L188.681 339.529L188.56 339.497Z" fill="#E0E0E0"/>
<path d="M179.943 344.515L182.148 340.201L182.463 340.358L182.228 340.818C182.124 341.021 182.089 341.139 182.124 341.216C182.162 341.299 182.291 341.375 182.507 341.483L188.453 344.456C188.663 344.561 188.778 344.609 188.842 344.587C188.908 344.565 188.972 344.454 189.08 344.244L189.315 343.784L189.63 343.942L188.215 346.709L187.9 346.552L188.135 346.092C188.243 345.88 188.296 345.761 188.276 345.692C188.256 345.626 188.151 345.561 187.942 345.457L182.016 342.494C181.897 342.434 181.801 342.355 181.725 342.266C181.698 342.235 181.673 342.202 181.652 342.168L181.073 343.299C180.838 343.761 180.687 344.165 180.707 344.513C180.725 344.845 180.906 345.137 181.331 345.395L182.398 346.04L182.183 346.46L179.192 344.694L179.388 344.39L179.875 344.676C179.888 344.63 179.91 344.579 179.943 344.515Z" fill="#E0E0E0"/>
<path fill-rule="evenodd" clip-rule="evenodd" d="M178.303 354.005L182.201 349.108L182.192 349.102C181.169 348.306 180.201 347.918 179.346 347.906C178.475 347.893 177.715 348.272 177.132 349.005C176.68 349.573 176.398 350.175 176.283 350.775C176.167 351.386 176.222 351.998 176.445 352.575L176.495 352.703L176.05 352.818L176.011 352.713C175.765 352.061 175.708 351.37 175.844 350.678C175.976 350.005 176.292 349.333 176.796 348.7C177.56 347.74 178.576 347.171 179.656 347.048C180.699 346.93 181.8 347.226 182.794 347.987L182.828 348.014C183.829 348.793 184.397 349.778 184.517 350.821C184.635 351.85 184.314 352.932 183.538 353.923L183.511 353.957C182.867 354.766 181.983 355.282 181.049 355.417C180.157 355.547 179.22 355.331 178.403 354.695L178.352 354.655C178.256 354.577 178.203 354.466 178.193 354.351C178.183 354.235 178.217 354.112 178.297 354.013L178.303 354.005ZM183.86 351.465C183.744 350.766 183.306 350.069 182.55 349.399L179.2 353.731C179.931 354.295 180.693 354.568 181.39 354.552C182.082 354.537 182.713 354.234 183.182 353.644C183.756 352.923 183.981 352.188 183.86 351.465Z" fill="#E0E0E0"/>
<path d="M179.291 358.193L179.422 358.376L177.385 359.794L177.182 359.509L177.76 359.107C177.633 359.058 177.503 358.978 177.403 358.909L171.649 355.294C171.632 355.283 171.583 355.249 171.526 355.204C171.545 355.26 171.563 355.325 171.579 355.399L173.016 361.772C173.027 361.826 173.042 361.875 173.059 361.919C173.075 361.957 173.092 361.99 173.111 362.018L173.116 362.025C173.159 362.087 173.216 362.122 173.285 362.125C173.368 362.128 173.474 362.089 173.603 362.001C173.818 361.849 174.035 361.699 174.251 361.549L174.511 361.369L174.714 361.654L172.493 363.201L172.29 362.915L172.503 362.767C172.616 362.688 172.665 362.61 172.673 362.505C172.682 362.379 172.643 362.203 172.586 361.956L170.759 354.207L171.363 353.716L178.169 358.069C178.391 358.212 178.544 358.307 178.667 358.338C178.768 358.364 178.859 358.342 178.977 358.259L179.219 358.091L179.291 358.193Z" fill="#E0E0E0"/>
<path fill-rule="evenodd" clip-rule="evenodd" d="M162.394 363.063L168.266 360.779L168.262 360.769C167.778 359.551 167.126 358.727 166.379 358.294C165.643 357.868 164.807 357.824 163.944 358.159L163.932 358.164C163.258 358.428 162.712 358.805 162.308 359.264C161.895 359.733 161.63 360.288 161.529 360.896L161.506 361.033L161.064 360.91L161.083 360.8C161.204 360.115 161.508 359.489 161.978 358.96C162.436 358.445 163.052 358.023 163.81 357.728C164.947 357.286 166.099 357.297 167.086 357.715C168.074 358.134 168.895 358.96 169.367 360.148C169.833 361.32 169.821 362.454 169.392 363.414C168.964 364.373 168.12 365.154 166.922 365.62C165.954 365.996 164.928 365.999 164.053 365.651C163.217 365.316 162.518 364.662 162.137 363.705L162.117 363.652C162.07 363.536 162.079 363.411 162.131 363.303C162.182 363.198 162.274 363.11 162.394 363.063ZM168.496 363.643C168.752 362.98 168.729 362.16 168.419 361.204L163.316 363.271C163.659 364.123 164.178 364.739 164.787 365.074C165.394 365.406 166.093 365.459 166.799 365.185C167.662 364.849 168.231 364.327 168.496 363.643Z" fill="#E0E0E0"/>
<path d="M157.004 359.489L159.987 359.093L160.034 359.439L159.517 359.507C159.283 359.539 159.158 359.564 159.114 359.62C159.071 359.677 159.079 359.802 159.11 360.034L159.967 366.358C159.977 366.423 160.008 366.478 160.054 366.513C160.101 366.548 160.165 366.566 160.239 366.557C160.425 366.523 160.615 366.48 160.803 366.437L160.805 366.437C160.885 366.418 160.966 366.4 161.045 366.382L161.135 366.67L160.182 367.002C159.971 367.074 159.785 367.187 159.668 367.336C159.571 367.46 159.521 367.612 159.544 367.788L159.567 367.955L159.229 368L159.016 366.425L158.966 366.029C158.861 366.543 158.621 366.989 158.285 367.321C157.947 367.656 157.512 367.877 157.02 367.943L157.008 367.944C156.375 368.026 155.855 367.913 155.473 367.646C155.085 367.375 154.842 366.949 154.769 366.412L153.997 360.713C153.965 360.48 153.94 360.357 153.883 360.314C153.826 360.271 153.698 360.279 153.464 360.31L152.936 360.38L152.889 360.034L155.996 359.623L156.043 359.968L155.04 360.101C155.058 360.148 155.071 360.204 155.082 360.287L155.866 366.075C155.937 366.596 156.063 366.984 156.262 367.224C156.448 367.448 156.705 367.543 157.051 367.497C157.582 367.426 158.017 367.11 158.295 366.623C158.579 366.124 158.7 365.445 158.595 364.663L157.987 360.183C157.956 359.953 157.929 359.83 157.87 359.787C157.81 359.743 157.679 359.751 157.443 359.783L156.927 359.851L156.88 359.505L157.004 359.489Z" fill="#E0E0E0"/>
<path d="M149.766 359.63L149.708 359.974L149.194 359.89C148.959 359.851 148.831 359.837 148.774 359.876C148.718 359.914 148.689 360.034 148.65 360.264L147.542 366.853C147.503 367.082 147.491 367.205 147.532 367.259C147.573 367.315 147.699 367.343 147.933 367.381L148.448 367.466L148.39 367.81L145.297 367.301L145.359 366.935L145.873 367.019C146.109 367.058 146.24 367.072 146.3 367.032C146.359 366.994 146.389 366.875 146.428 366.646L147.533 360.08C147.571 359.851 147.581 359.73 147.538 359.674C147.494 359.617 147.366 359.589 147.13 359.55L146.616 359.465L146.673 359.122L149.766 359.63Z" fill="#E0E0E0"/>
<path d="M146.321 359.023L145.466 362.089L145.029 361.97L145.185 361.408C145.349 360.813 145.3 360.262 145.094 359.819C144.882 359.362 144.502 359.019 144.018 358.86L144.012 358.858C143.563 358.713 143.142 358.735 142.8 358.902C142.461 359.067 142.195 359.376 142.052 359.804L142.05 359.81C141.909 360.236 141.981 360.637 142.167 361.021C142.36 361.418 142.677 361.804 143.008 362.183C143.388 362.618 143.775 363.065 144.018 363.568C144.267 364.083 144.362 364.65 144.146 365.304C143.962 365.859 143.582 366.248 143.076 366.442C142.579 366.633 141.963 366.635 141.299 366.42C140.962 366.31 140.693 366.158 140.476 365.987C140.26 365.818 140.095 365.629 139.963 365.445L139.95 365.425C139.908 365.59 139.863 365.755 139.818 365.919C139.796 365.998 139.775 366.076 139.754 366.154L139.406 366.042L140.185 363.261L140.622 363.381L140.463 363.954C140.343 364.388 140.35 364.857 140.539 365.246C140.697 365.573 140.987 365.846 141.441 365.992C141.848 366.125 142.196 366.124 142.471 365.992C142.743 365.863 142.949 365.604 143.077 365.217C143.21 364.816 143.132 364.448 142.943 364.091C142.746 363.719 142.426 363.352 142.095 362.974C141.705 362.529 141.307 362.051 141.061 361.51C140.812 360.962 140.718 360.355 140.942 359.662L140.949 359.642C141.151 359.032 141.576 358.605 142.141 358.393C142.697 358.185 143.389 358.187 144.136 358.429C144.481 358.541 144.764 358.689 145.017 358.881C145.269 359.073 145.488 359.307 145.707 359.593L145.708 359.595C145.726 359.62 145.747 359.657 145.768 359.7C145.824 359.489 145.883 359.278 145.943 359.068C145.967 358.982 145.991 358.897 146.014 358.812L146.355 358.901L146.321 359.023Z" fill="#E0E0E0"/>
<path d="M132.516 356.472L131.764 360.546C131.756 360.591 131.747 360.633 131.736 360.672L131.846 360.595L137.643 356.746L138.054 357.006C137.183 357.588 136.311 358.17 135.44 358.752L135.407 358.773L135.406 358.774C134.006 359.709 132.607 360.643 131.208 361.578L130.297 361.003L130.437 360.785C130.494 360.697 130.551 360.589 130.597 360.485C130.641 360.386 130.674 360.292 130.686 360.229L131.953 353.358C132.002 353.083 132.033 352.905 132.016 352.786C132.002 352.689 131.947 352.622 131.824 352.544L131.643 352.43L131.832 352.136L133.864 353.419L133.674 353.712L133.07 353.33L133.069 353.387C133.064 353.511 133.042 353.643 133.023 353.748L132.605 356.008L134.666 357.31C134.641 357.201 134.631 357.088 134.633 356.975C134.64 356.705 134.723 356.43 134.87 356.203C135.163 355.768 135.515 355.325 135.86 354.891C136.021 354.687 136.182 354.484 136.334 354.286L136.619 354.508L136.282 354.96C136.326 354.977 136.375 355.004 136.437 355.043L141.205 358.053L141.016 358.347L140.577 358.07C140.383 357.947 140.268 357.901 140.186 357.928C140.098 357.957 140.01 358.076 139.879 358.279L136.295 363.833C136.168 364.03 136.109 364.138 136.125 364.204C136.141 364.271 136.245 364.345 136.446 364.471L136.885 364.748L136.696 365.042L134.053 363.374L134.243 363.081L134.682 363.358C134.883 363.485 134.998 363.549 135.07 363.536C135.139 363.523 135.214 363.426 135.34 363.23L138.912 357.695C138.984 357.584 139.073 357.497 139.17 357.431C139.205 357.407 139.24 357.386 139.276 357.368L137.547 356.276C137.107 355.999 136.72 355.813 136.37 355.799C136.036 355.786 135.723 355.935 135.411 356.323L135.183 356.607L135.15 356.656C135.023 356.852 134.98 357.054 135.019 357.242C135.059 357.429 135.181 357.609 135.384 357.763L135.645 357.927L135.275 358.213L132.516 356.472Z" fill="#E0E0E0"/>
<path d="M129.991 349.648L131.951 351.907L131.683 352.134L131.344 351.742C131.19 351.565 131.1 351.475 131.029 351.47C130.957 351.464 130.855 351.54 130.675 351.692L125.783 355.846C125.731 355.89 125.701 355.948 125.698 356.007C125.694 356.065 125.714 356.127 125.762 356.183C125.892 356.32 126.034 356.455 126.174 356.588C126.233 356.644 126.291 356.699 126.348 356.755L126.152 356.986L125.352 356.376C125.177 356.241 124.98 356.148 124.789 356.133C124.631 356.12 124.475 356.161 124.338 356.276L124.209 356.386L123.987 356.13L125.206 355.094L125.515 354.837C125.021 355.031 124.513 355.075 124.048 354.977C123.58 354.879 123.155 354.639 122.832 354.266C122.42 353.792 122.23 353.304 122.241 352.846C122.252 352.367 122.481 351.924 122.904 351.565L127.315 347.819C127.495 347.667 127.585 347.579 127.591 347.508C127.596 347.437 127.52 347.336 127.366 347.158L127.019 346.759L127.286 346.531L129.329 348.884L129.061 349.112L128.401 348.352C128.373 348.392 128.331 348.434 128.267 348.488L123.787 352.292C123.383 352.634 123.123 352.95 123.028 353.246C122.939 353.521 122.999 353.787 123.227 354.049C123.58 354.456 124.095 354.644 124.67 354.603C125.241 354.561 125.874 354.292 126.471 353.785L129.938 350.842C130.116 350.69 130.205 350.6 130.21 350.528C130.214 350.454 130.136 350.351 129.981 350.172L129.641 349.781L129.909 349.554L129.991 349.648Z" fill="#E0E0E0"/>
<path fill-rule="evenodd" clip-rule="evenodd" d="M125.584 343.628L127.086 346.551L126.771 346.709L126.535 346.249C126.428 346.041 126.362 345.933 126.294 345.91C126.226 345.889 126.109 345.938 125.898 346.044L119.989 349.014C119.771 349.124 119.638 349.202 119.595 349.29C119.556 349.37 119.587 349.489 119.691 349.69L119.927 350.15L119.612 350.308L118.11 347.384C117.494 346.186 117.353 344.998 117.644 343.967C117.936 342.933 118.663 342.061 119.782 341.498C120.903 340.935 122.046 340.867 123.065 341.242C124.08 341.616 124.968 342.429 125.584 343.628ZM125.686 344.952L125.752 344.948L125.317 344.1C124.78 343.056 124.078 342.401 123.243 342.145C122.406 341.888 121.427 342.03 120.336 342.578L120.319 342.586C119.242 343.131 118.557 343.826 118.277 344.641C117.995 345.458 118.117 346.406 118.654 347.451L119.089 348.297L119.132 348.247C119.203 348.171 119.296 348.105 119.426 348.04L125.344 345.065C125.473 345 125.582 344.964 125.686 344.952Z" fill="#E0E0E0"/>
<path d="M123.754 338.995L120.707 340.015L120.562 339.589L121.12 339.401C121.71 339.202 122.144 338.853 122.399 338.437C122.663 338.005 122.737 337.499 122.596 337.011C122.466 336.562 122.211 336.231 121.881 336.044C121.551 335.858 121.14 335.813 120.699 335.939C120.263 336.062 119.969 336.345 119.752 336.713C119.527 337.094 119.382 337.57 119.251 338.054C119.101 338.608 118.943 339.175 118.657 339.657C118.365 340.15 117.944 340.547 117.275 340.736C116.708 340.897 116.17 340.803 115.724 340.498C115.284 340.199 114.937 339.695 114.745 339.03C114.647 338.693 114.624 338.387 114.645 338.114C114.667 337.841 114.732 337.6 114.812 337.389L114.821 337.367C114.661 337.425 114.5 337.48 114.338 337.535L114.337 337.535L114.335 337.536C114.257 337.562 114.178 337.589 114.101 337.616L114 337.269L116.764 336.346L116.91 336.772L116.341 336.962C115.911 337.108 115.522 337.377 115.302 337.749C115.116 338.062 115.051 338.452 115.183 338.907L115.184 338.913C115.302 339.316 115.497 339.598 115.757 339.749C116.018 339.9 116.352 339.924 116.749 339.812L116.753 339.811C117.161 339.694 117.424 339.424 117.617 339.07C117.817 338.701 117.945 338.233 118.076 337.75C118.23 337.182 118.406 336.588 118.722 336.082C119.044 335.565 119.505 335.145 120.223 334.942L120.24 334.937C120.858 334.768 121.447 334.877 121.936 335.219C122.423 335.558 122.809 336.126 123.025 336.873L123.03 336.89C123.126 337.228 123.16 337.537 123.141 337.847C123.122 338.16 123.048 338.472 122.932 338.811L122.931 338.813C122.921 338.842 122.901 338.88 122.875 338.922C123.118 338.838 123.363 338.757 123.607 338.676L123.758 338.625L123.874 338.955L123.754 338.995Z" fill="#E0E0E0"/>
<path d="M121.021 319.48L120.928 319.816L120.207 319.622C119.728 319.493 119.433 319.544 119.243 319.692C119.049 319.843 118.949 320.105 118.872 320.386L118.786 320.698L121.906 321.539C122.034 321.573 122.145 321.632 122.237 321.704C122.27 321.73 122.301 321.757 122.329 321.786L122.857 319.872C122.991 319.384 122.993 319 122.842 318.702C122.693 318.406 122.387 318.184 121.906 318.016L120.941 317.678L121.054 317.266L124.207 318.33L124.09 318.66L123.672 318.517L123.671 318.535C123.667 318.619 123.648 318.709 123.623 318.803L122.242 323.812L121.902 323.72L122.039 323.222C122.101 322.997 122.126 322.873 122.091 322.812C122.055 322.75 121.934 322.708 121.706 322.647L115.213 320.896C114.985 320.835 114.86 320.81 114.798 320.845C114.735 320.881 114.693 321 114.631 321.226L114.494 321.723L114.154 321.631L115.374 317.205C115.399 317.112 115.43 317.024 115.469 316.95L115.477 316.934L115.044 316.847L115.112 316.505L118.378 317.159L118.258 317.594L117.366 317.407C116.803 317.288 116.395 317.331 116.099 317.523C115.803 317.716 115.607 318.065 115.473 318.554L115.118 319.842C115.157 319.831 115.197 319.823 115.239 319.818C115.356 319.802 115.481 319.807 115.609 319.842L118.348 320.58L118.434 320.268C118.511 319.987 118.561 319.711 118.475 319.485C118.39 319.262 118.164 319.071 117.686 318.942L117.183 318.807L117.276 318.471L121.021 319.48Z" fill="#E0E0E0"/>
<path d="M126.059 313.597L123.854 317.911L123.539 317.754L123.774 317.294C123.878 317.091 123.913 316.973 123.878 316.896C123.84 316.812 123.711 316.737 123.495 316.629L117.55 313.655C117.339 313.55 117.224 313.502 117.16 313.524C117.094 313.546 117.03 313.657 116.923 313.867L116.688 314.328L116.373 314.17L117.788 311.403L118.102 311.56L117.867 312.02C117.759 312.231 117.706 312.351 117.726 312.419C117.746 312.486 117.851 312.55 118.061 312.655L123.986 315.618C124.105 315.678 124.201 315.758 124.277 315.846C124.304 315.878 124.328 315.91 124.35 315.944L124.929 314.812C125.165 314.351 125.315 313.947 125.296 313.599C125.277 313.267 125.096 312.975 124.672 312.717L123.605 312.072L123.82 311.652L126.811 313.419L126.615 313.722L126.127 313.436C126.114 313.481 126.092 313.533 126.059 313.597Z" fill="#E0E0E0"/>
<path fill-rule="evenodd" clip-rule="evenodd" d="M127.704 303.987L123.801 308.892L123.809 308.898C124.832 309.695 125.8 310.082 126.656 310.094C127.527 310.107 128.286 309.728 128.869 308.995C129.322 308.427 129.603 307.825 129.718 307.224C129.835 306.614 129.78 306.002 129.557 305.426L129.507 305.296L129.951 305.182L129.991 305.287C130.236 305.938 130.294 306.63 130.158 307.321C130.026 307.991 129.712 308.661 129.213 309.291L129.206 309.3C128.45 310.249 127.449 310.816 126.383 310.948C125.329 311.078 124.213 310.783 123.208 310.013L123.167 309.981C122.171 309.203 121.604 308.22 121.484 307.18C121.366 306.15 121.687 305.068 122.463 304.077L122.49 304.043C123.134 303.234 124.018 302.718 124.952 302.583C125.844 302.453 126.781 302.669 127.598 303.305L127.643 303.34C127.742 303.417 127.798 303.531 127.808 303.649C127.818 303.765 127.784 303.887 127.704 303.987ZM122.141 306.535C122.257 307.235 122.696 307.931 123.452 308.601L126.802 304.269C126.071 303.705 125.308 303.432 124.612 303.447C123.919 303.463 123.288 303.767 122.819 304.356C122.245 305.077 122.021 305.812 122.141 306.535Z" fill="#E0E0E0"/>
<path d="M126.801 299.808L126.67 299.625L128.706 298.206L128.909 298.492L128.332 298.893C128.459 298.943 128.589 299.022 128.689 299.092L134.443 302.706C134.46 302.717 134.509 302.751 134.566 302.796C134.547 302.739 134.529 302.674 134.513 302.6L133.076 296.228C133.063 296.173 133.049 296.124 133.031 296.079C133.016 296.042 132.998 296.008 132.978 295.978L132.976 295.975C132.932 295.914 132.875 295.878 132.807 295.875C132.721 295.872 132.613 295.912 132.479 296.006L131.58 296.631L131.377 296.346L133.598 294.799L133.801 295.084L133.588 295.233C133.475 295.312 133.427 295.39 133.418 295.494C133.409 295.621 133.448 295.796 133.505 296.044L135.333 303.793L134.729 304.284L127.924 299.931C127.701 299.789 127.548 299.694 127.425 299.662C127.324 299.636 127.233 299.659 127.114 299.742L126.873 299.91L126.801 299.808Z" fill="#E0E0E0"/>
<path fill-rule="evenodd" clip-rule="evenodd" d="M143.675 294.937L137.803 297.221L137.807 297.23C138.291 298.449 138.943 299.273 139.69 299.706C140.427 300.132 141.262 300.176 142.125 299.841L142.138 299.836C142.812 299.572 143.358 299.195 143.762 298.736C144.175 298.267 144.44 297.711 144.541 297.103L144.564 296.966L145.006 297.089L144.986 297.199C144.866 297.884 144.562 298.511 144.091 299.04C143.634 299.554 143.018 299.977 142.26 300.272L142.237 300.28C141.108 300.714 139.964 300.701 138.984 300.285C137.996 299.866 137.175 299.04 136.703 297.852L136.694 297.83C136.237 296.665 136.251 295.54 136.677 294.586C137.105 293.627 137.949 292.846 139.147 292.38C140.092 292.013 141.092 292 141.953 292.324C142.817 292.65 143.542 293.313 143.932 294.295L143.953 294.347C143.999 294.463 143.99 294.588 143.938 294.696C143.888 294.8 143.797 294.888 143.678 294.935L143.675 294.937ZM137.573 294.357C137.317 295.019 137.34 295.839 137.65 296.795L142.753 294.729C142.41 293.877 141.891 293.26 141.282 292.926C140.676 292.594 139.976 292.541 139.27 292.815C138.407 293.151 137.838 293.673 137.573 294.357Z" fill="#E0E0E0"/>
<path d="M146.037 298.906L145.99 298.561L146.507 298.492C146.742 298.461 146.867 298.436 146.91 298.379C146.954 298.323 146.945 298.197 146.914 297.965L146.057 291.641C146.048 291.577 146.016 291.522 145.97 291.488C145.923 291.452 145.859 291.435 145.785 291.443C145.598 291.476 145.408 291.52 145.219 291.563C145.139 291.582 145.059 291.6 144.979 291.618L144.89 291.329L145.843 290.998C146.054 290.926 146.239 290.813 146.356 290.664C146.453 290.54 146.503 290.388 146.48 290.212L146.458 290.045L146.795 290L147.009 291.575L147.058 291.971C147.163 291.456 147.403 291.011 147.739 290.679C148.077 290.344 148.512 290.122 149.004 290.057C149.632 289.974 150.148 290.082 150.531 290.34C150.931 290.61 151.181 291.042 151.255 291.588L152.028 297.288C152.059 297.519 152.085 297.643 152.142 297.686C152.199 297.729 152.326 297.721 152.561 297.69L153.089 297.62L153.135 297.965L150.028 298.377L149.981 298.032L150.985 297.899C150.966 297.853 150.954 297.796 150.943 297.714L150.158 291.925C150.088 291.404 149.961 291.016 149.762 290.776C149.577 290.552 149.319 290.458 148.973 290.503C148.443 290.573 148.007 290.89 147.73 291.377C147.445 291.877 147.324 292.556 147.43 293.337L148.037 297.817C148.068 298.047 148.095 298.17 148.155 298.213C148.215 298.257 148.345 298.249 148.581 298.218L149.098 298.149L149.144 298.495L146.037 298.906Z" fill="#E0E0E0"/>
<path d="M159.182 298.859L156.213 298.37L156.271 298.026L156.785 298.11C157.02 298.149 157.148 298.163 157.205 298.124C157.261 298.086 157.29 297.966 157.329 297.736L158.437 291.148C158.476 290.918 158.488 290.795 158.447 290.74C158.406 290.685 158.28 290.658 158.046 290.619L157.532 290.535L157.589 290.191L160.682 290.699L160.62 291.066L160.106 290.981C159.87 290.942 159.74 290.928 159.679 290.968C159.62 291.006 159.59 291.125 159.551 291.353L158.446 297.92C158.408 298.149 158.398 298.271 158.441 298.326C158.485 298.383 158.614 298.411 158.849 298.45L159.363 298.535L159.306 298.879L159.182 298.859Z" fill="#E0E0E0"/>
<path d="M160.513 296.022L160.951 296.142L160.795 296.704C160.63 297.299 160.679 297.85 160.885 298.293C161.098 298.752 161.48 299.096 161.967 299.254C162.416 299.4 162.837 299.377 163.179 299.21C163.52 299.044 163.787 298.733 163.929 298.302C164.071 297.876 163.998 297.476 163.812 297.092C163.619 296.694 163.302 296.308 162.971 295.929C162.591 295.495 162.204 295.047 161.962 294.544C161.713 294.029 161.617 293.462 161.834 292.808C162.018 292.253 162.398 291.865 162.904 291.67C163.4 291.479 164.016 291.477 164.68 291.692C165.018 291.802 165.287 291.954 165.504 292.125C165.719 292.295 165.884 292.484 166.017 292.668L166.03 292.687C166.072 292.521 166.118 292.355 166.163 292.189C166.184 292.112 166.206 292.034 166.226 291.958L166.574 292.07L165.795 294.851L165.357 294.731L165.517 294.158C165.636 293.725 165.629 293.255 165.441 292.867C165.283 292.539 164.993 292.266 164.539 292.12C164.133 291.988 163.786 291.989 163.511 292.118C163.239 292.247 163.031 292.507 162.903 292.894L162.9 292.902C162.77 293.301 162.849 293.666 163.036 294.021C163.233 294.393 163.553 294.76 163.885 295.138C164.274 295.583 164.672 296.061 164.918 296.603C165.17 297.155 165.263 297.769 165.031 298.47C164.828 299.081 164.404 299.507 163.838 299.719C163.281 299.927 162.59 299.925 161.843 299.683C161.498 299.571 161.215 299.423 160.962 299.23C160.71 299.039 160.491 298.804 160.272 298.519L160.271 298.517C160.253 298.492 160.232 298.455 160.211 298.411C160.159 298.606 160.105 298.801 160.05 298.996L160.049 298.999C160.021 299.1 159.993 299.2 159.965 299.301L159.624 299.21L160.513 296.022Z" fill="#E0E0E0"/>
<path d="M173.53 301.64L174.283 297.566C174.291 297.521 174.3 297.479 174.311 297.44L174.201 297.517L168.404 301.365L167.993 301.106L174.839 296.534L175.751 297.109L175.61 297.326C175.553 297.415 175.496 297.523 175.45 297.627C175.406 297.726 175.372 297.82 175.361 297.883L174.094 304.754L174.093 304.757C174.045 305.03 174.014 305.207 174.031 305.325C174.045 305.422 174.1 305.49 174.223 305.567L174.405 305.682L174.215 305.976L172.183 304.693L172.373 304.4L172.977 304.781L172.978 304.724C172.983 304.601 173.005 304.469 173.024 304.363L173.442 302.104L171.38 300.802C171.406 300.911 171.416 301.024 171.414 301.137C171.407 301.407 171.324 301.682 171.177 301.909C170.885 302.341 170.537 302.78 170.195 303.21C170.031 303.418 169.868 303.624 169.713 303.826L169.428 303.603L169.765 303.152C169.721 303.135 169.672 303.108 169.61 303.069L164.842 300.059L165.031 299.765L165.471 300.042C165.664 300.165 165.779 300.211 165.861 300.184C165.949 300.155 166.037 300.036 166.168 299.834L169.752 294.279C169.879 294.082 169.938 293.974 169.923 293.908C169.906 293.841 169.802 293.767 169.601 293.641L169.162 293.363L169.351 293.069L171.994 294.738L171.805 295.031L171.365 294.754C171.164 294.627 171.049 294.563 170.978 294.576C170.908 294.589 170.833 294.686 170.707 294.881L167.135 300.417C167.063 300.528 166.974 300.615 166.877 300.681C166.843 300.705 166.807 300.725 166.771 300.744L168.5 301.835C168.94 302.113 169.327 302.299 169.677 302.313C170.012 302.326 170.324 302.177 170.636 301.789L170.864 301.504L170.897 301.456C171.024 301.259 171.068 301.058 171.028 300.87C170.988 300.682 170.866 300.503 170.663 300.349L170.402 300.185L170.772 299.899L173.53 301.64Z" fill="#E0E0E0"/>
<path d="M176.011 308.464L174.051 306.205L174.319 305.978L174.658 306.37C174.812 306.547 174.902 306.637 174.973 306.642C175.045 306.648 175.147 306.572 175.327 306.42L180.218 302.266C180.271 302.222 180.301 302.164 180.304 302.104C180.308 302.047 180.288 301.985 180.24 301.929C180.112 301.794 179.973 301.662 179.835 301.531C179.774 301.473 179.714 301.415 179.654 301.357L179.85 301.126L180.65 301.736C180.825 301.871 181.022 301.963 181.213 301.979C181.371 301.992 181.527 301.951 181.663 301.835L181.793 301.726L182.015 301.982L180.796 303.017L180.487 303.274C180.981 303.081 181.489 303.037 181.954 303.135C182.422 303.233 182.847 303.473 183.17 303.846C183.582 304.32 183.772 304.808 183.761 305.266C183.75 305.745 183.521 306.188 183.098 306.547L178.687 310.293C178.507 310.445 178.417 310.533 178.411 310.604C178.406 310.675 178.482 310.776 178.636 310.953L178.983 311.353L178.716 311.58L176.673 309.227L176.941 309L177.601 309.76C177.63 309.719 177.671 309.677 177.735 309.624L182.215 305.82C182.619 305.478 182.878 305.161 182.974 304.866C183.062 304.59 183.002 304.325 182.775 304.063C182.421 303.655 181.907 303.467 181.332 303.509C180.76 303.551 180.128 303.82 179.531 304.326L176.064 307.27C175.885 307.422 175.797 307.511 175.792 307.584C175.788 307.658 175.866 307.761 176.021 307.94L176.361 308.331L176.093 308.558L176.011 308.464Z" fill="#E0E0E0"/>
<path fill-rule="evenodd" clip-rule="evenodd" d="M180.35 314.483L178.848 311.561L179.163 311.403L179.399 311.862C179.506 312.071 179.572 312.18 179.64 312.201C179.708 312.223 179.825 312.174 180.037 312.068L185.945 309.098C186.163 308.988 186.297 308.91 186.339 308.821C186.378 308.742 186.347 308.623 186.243 308.421L186.007 307.962L186.322 307.804L187.824 310.728C188.439 311.926 188.581 313.114 188.29 314.144C187.998 315.179 187.271 316.051 186.152 316.614C185.031 317.177 183.888 317.245 182.869 316.87C181.854 316.496 180.966 315.682 180.35 314.483ZM180.248 313.16L180.182 313.164L180.617 314.012C181.154 315.056 181.856 315.711 182.691 315.967C183.528 316.224 184.507 316.083 185.598 315.534L185.609 315.529C186.689 314.983 187.376 314.287 187.658 313.471C187.939 312.654 187.817 311.706 187.28 310.662L186.845 309.815L186.802 309.865C186.731 309.942 186.638 310.007 186.509 310.072L180.59 313.047C180.46 313.112 180.352 313.148 180.248 313.16Z" fill="#E0E0E0"/>
<path d="M185.435 318.233L185.559 318.665L184.992 318.826C184.393 318.996 183.943 319.324 183.668 319.729C183.383 320.147 183.284 320.649 183.401 321.143C183.509 321.598 183.747 321.941 184.068 322.143C184.389 322.345 184.797 322.408 185.244 322.305C185.685 322.202 185.993 321.933 186.228 321.576C186.471 321.205 186.639 320.738 186.794 320.26C186.971 319.714 187.156 319.155 187.464 318.688C187.78 318.21 188.22 317.833 188.897 317.676C189.472 317.543 190.005 317.662 190.436 317.988C190.86 318.308 191.182 318.827 191.341 319.501C191.422 319.842 191.43 320.148 191.396 320.421C191.361 320.692 191.284 320.93 191.194 321.137L191.184 321.158C191.358 321.105 191.533 321.054 191.708 321.004C191.778 320.984 191.847 320.964 191.916 320.944L192 321.296L189.194 322.086L189.069 321.653L189.647 321.49C190.084 321.366 190.485 321.115 190.723 320.754C190.923 320.45 191.008 320.063 190.899 319.603C190.801 319.191 190.618 318.897 190.362 318.733C190.11 318.571 189.778 318.531 189.378 318.624C188.962 318.721 188.685 318.978 188.475 319.323C188.256 319.684 188.106 320.144 187.952 320.62C187.77 321.181 187.565 321.766 187.225 322.256C186.879 322.756 186.397 323.155 185.671 323.323C185.039 323.469 184.45 323.332 183.973 322.965C183.503 322.603 183.145 322.017 182.966 321.261C182.883 320.912 182.863 320.595 182.898 320.282C182.932 319.969 183.021 319.662 183.154 319.329L183.155 319.327C183.167 319.298 183.188 319.261 183.215 319.221C183.008 319.282 182.8 319.341 182.591 319.399L182.589 319.4C182.499 319.425 182.409 319.45 182.319 319.476L182.22 319.141L185.435 318.233Z" fill="#E0E0E0"/>
<path d="M119.051 329.031C119.051 328.282 118.437 327.675 117.68 327.675C116.923 327.675 116.31 328.282 116.31 329.031C116.31 329.78 116.923 330.387 117.68 330.387C118.437 330.387 119.051 329.78 119.051 329.031Z" fill="#E0E0E0"/>
<path d="M188.458 327.675C189.215 327.675 189.828 328.282 189.828 329.031C189.828 329.78 189.215 330.387 188.458 330.387C187.7 330.387 187.087 329.78 187.087 329.031C187.087 328.282 187.7 327.675 188.458 327.675Z" fill="#E0E0E0"/>
</svg>
