<svg width="40" height="40" viewBox="0 0 40 40" fill="none" xmlns="http://www.w3.org/2000/svg">
<path d="M24.1668 35V26.6667C24.1668 25.7462 23.4206 25 22.5002 25H17.5002C16.5797 25 15.8335 25.7462 15.8335 26.6667V35" stroke="#909090" stroke-width="3.33333" stroke-linecap="round" stroke-linejoin="round"/>
<path d="M8.3335 18.334V28.334C8.3335 31.4767 8.3335 33.048 9.30981 34.0243C10.2861 35.0007 11.8575 35.0007 15.0002 35.0007H25.0002C28.1429 35.0007 29.7142 35.0007 30.6905 34.0243C31.6668 33.048 31.6668 31.4767 31.6668 28.334V18.334" stroke="#909090" stroke-width="3.33333"/>
<path d="M7.70211 7.52488C8.00526 6.31228 8.15684 5.70598 8.60894 5.35299C9.06104 5 9.686 5 10.9359 5H29.0641C30.314 5 30.939 5 31.3911 5.35299C31.8432 5.70598 31.9947 6.31228 32.2979 7.52488L34.3039 15.549C34.4653 16.1946 34.546 16.5174 34.5282 16.7796C34.482 17.4595 34.0266 18.0428 33.3782 18.2525C33.1282 18.3333 32.7877 18.3333 32.1068 18.3333V18.3333C31.2182 18.3333 30.774 18.3333 30.4008 18.2464C29.3554 18.0029 28.4913 17.2708 28.0792 16.2797C27.9321 15.9259 27.8607 15.4976 27.7179 14.6409V14.6409C27.678 14.4013 27.658 14.2814 27.6354 14.2499C27.5689 14.1573 27.4311 14.1573 27.3646 14.2499C27.342 14.2814 27.322 14.4013 27.2821 14.6409L27.1462 15.4564C27.1318 15.5428 27.1246 15.586 27.1173 15.6239C26.8232 17.1675 25.491 18.2961 23.92 18.3324C23.8815 18.3333 23.8376 18.3333 23.75 18.3333V18.3333C23.6624 18.3333 23.6185 18.3333 23.58 18.3324C22.009 18.2961 20.6768 17.1675 20.3827 15.6239C20.3754 15.586 20.3682 15.5428 20.3538 15.4564L20.2179 14.6409C20.178 14.4013 20.158 14.2814 20.1354 14.2499C20.0689 14.1573 19.9311 14.1573 19.8646 14.2499C19.842 14.2814 19.822 14.4013 19.7821 14.6409L19.6462 15.4564C19.6318 15.5428 19.6246 15.586 19.6173 15.6239C19.3232 17.1675 17.991 18.2961 16.42 18.3324C16.3815 18.3333 16.3376 18.3333 16.25 18.3333V18.3333C16.1624 18.3333 16.1185 18.3333 16.08 18.3324C14.509 18.2961 13.1768 17.1675 12.8827 15.6239C12.8754 15.586 12.8682 15.5428 12.8538 15.4564L12.7179 14.6409C12.678 14.4013 12.658 14.2814 12.6354 14.2499C12.5689 14.1573 12.4311 14.1573 12.3646 14.2499C12.342 14.2814 12.322 14.4013 12.2821 14.6409V14.6409C12.1393 15.4976 12.0679 15.9259 11.9208 16.2797C11.5087 17.2708 10.6446 18.0029 9.59919 18.2464C9.22604 18.3333 8.78176 18.3333 7.89319 18.3333V18.3333C7.21228 18.3333 6.87182 18.3333 6.62177 18.2525C5.97338 18.0428 5.51797 17.4595 5.47179 16.7796C5.45398 16.5174 5.53469 16.1946 5.69609 15.549L7.70211 7.52488Z" stroke="#909090" stroke-width="3.33333"/>
</svg>
