<svg width="40" height="40" viewBox="0 0 40 40" fill="none" xmlns="http://www.w3.org/2000/svg">
<path d="M16.9063 11.0451C18.2173 7.77674 18.8728 6.14258 20 6.14258C21.1272 6.14258 21.7827 7.77674 23.0937 11.0451L23.1548 11.1973C23.8954 13.0437 24.2657 13.9669 25.0205 14.5281C25.7752 15.0892 26.766 15.178 28.7475 15.3554L29.1058 15.3875C32.3488 15.6779 33.9703 15.8232 34.3173 16.8548C34.6642 17.8864 33.46 18.982 31.0516 21.1732L30.2478 21.9045C29.0286 23.0136 28.419 23.5682 28.1349 24.2951C28.0819 24.4307 28.0379 24.5696 28.003 24.711C27.8163 25.4688 27.9948 26.2733 28.3518 27.8824L28.4629 28.3833C29.119 31.3405 29.4471 32.8191 28.8743 33.4569C28.6603 33.6952 28.3821 33.8668 28.0731 33.9511C27.246 34.1768 26.0719 33.2201 23.7237 31.3066C22.1817 30.0501 21.4107 29.4219 20.5256 29.2805C20.1774 29.2249 19.8226 29.2249 19.4744 29.2805C18.5892 29.4219 17.8183 30.0501 16.2763 31.3066C13.9281 33.2201 12.7539 34.1768 11.9269 33.9511C11.6179 33.8668 11.3397 33.6952 11.1257 33.4569C10.5529 32.8191 10.8809 31.3405 11.5371 28.3833L11.6482 27.8824C12.0052 26.2733 12.1837 25.4688 11.997 24.711C11.9621 24.5696 11.9181 24.4307 11.8651 24.2951C11.5809 23.5682 10.9713 23.0136 9.75217 21.9045L8.94837 21.1732C6.53996 18.982 5.33576 17.8864 5.68272 16.8548C6.02969 15.8232 7.6512 15.6779 10.8942 15.3875L11.2525 15.3554C13.234 15.178 14.2247 15.0892 14.9795 14.5281C15.7342 13.9669 16.1046 13.0437 16.8452 11.1973L16.9063 11.0451Z" stroke="#909090" stroke-width="3.33333"/>
</svg>
