<svg width="30" height="31" viewBox="0 0 30 31" fill="none" xmlns="http://www.w3.org/2000/svg">
<path d="M12.5 19.25L12.5 15.5" stroke="white" stroke-width="2.5" stroke-linecap="round"/>
<path d="M17.5 19.25L17.5 15.5" stroke="white" stroke-width="2.5" stroke-linecap="round"/>
<path d="M3.75 9.25H26.25V9.25C25.0851 9.25 24.5027 9.25 24.0433 9.4403C23.4307 9.69404 22.944 10.1807 22.6903 10.7933C22.5 11.2527 22.5 11.8351 22.5 13V20.5C22.5 22.857 22.5 24.0355 21.7678 24.7678C21.0355 25.5 19.857 25.5 17.5 25.5H12.5C10.143 25.5 8.96447 25.5 8.23223 24.7678C7.5 24.0355 7.5 22.857 7.5 20.5V13C7.5 11.8351 7.5 11.2527 7.3097 10.7933C7.05596 10.1807 6.56928 9.69404 5.95671 9.4403C5.49728 9.25 4.91485 9.25 3.75 9.25V9.25Z" stroke="white" stroke-width="2.5" stroke-linecap="round"/>
<path d="M12.5852 4.71324C12.7276 4.58034 13.0415 4.46291 13.4781 4.37915C13.9147 4.2954 14.4497 4.25 15 4.25C15.5503 4.25 16.0853 4.2954 16.5219 4.37915C16.9585 4.46291 17.2724 4.58034 17.4148 4.71324" stroke="white" stroke-width="2.5" stroke-linecap="round"/>
</svg>
